<?xml version="1.0" standalone="no"?>
<!DOCTYPE svg PUBLIC "-//W3C//DTD SVG 20010904//EN"
 "http://www.w3.org/TR/2001/REC-SVG-20010904/DTD/svg10.dtd">
<svg version="1.0" xmlns="http://www.w3.org/2000/svg"
 width="640.000000pt" height="640.000000pt" viewBox="0 0 640.000000 640.000000"
 preserveAspectRatio="xMidYMid meet">

<g transform="translate(0.000000,640.000000) scale(0.100000,-0.100000)"
fill="#000000" stroke="none">
<path d="M991 5215 c-18 -8 -43 -15 -55 -15 -11 -1 -38 -16 -59 -34 l-38 -34
0 -249 0 -248 33 -28 c18 -15 38 -32 45 -37 7 -6 48 -11 91 -12 89 -3 138 15
166 63 29 49 21 85 -30 134 -25 24 -50 45 -55 47 -6 2 -13 29 -16 60 -5 53 -4
58 22 82 38 36 70 42 111 22 45 -21 54 -48 54 -166 l0 -99 145 1 145 0 -2 27
c-1 14 -1 65 0 112 3 111 11 122 90 122 34 0 68 -5 76 -12 26 -22 32 -99 10
-140 -24 -46 -113 -161 -125 -161 -5 0 -19 -11 -31 -25 -12 -14 -27 -25 -33
-25 -7 0 -22 -9 -35 -20 -13 -11 -29 -20 -37 -20 -7 0 -21 -4 -31 -9 -9 -5
-28 -13 -42 -19 -14 -6 -68 -31 -121 -56 -53 -25 -101 -46 -108 -46 -6 0 -11
-4 -11 -9 0 -5 -19 -19 -42 -31 -24 -12 -56 -37 -73 -55 -16 -18 -38 -35 -47
-38 -10 -4 -18 -13 -18 -21 0 -9 -12 -23 -26 -32 -14 -10 -43 -44 -65 -76
l-40 -59 -1 -182 0 -183 31 -55 c33 -60 139 -166 193 -194 135 -72 199 -98
253 -105 33 -5 99 -14 147 -21 73 -11 98 -11 150 1 35 7 93 16 130 19 37 4 73
12 80 19 6 6 21 12 31 12 54 0 247 127 247 162 0 4 6 8 14 8 28 0 39 -31 40
-108 l1 -77 135 -1 c74 -1 147 3 162 8 l27 10 1 861 c0 474 2 873 3 887 l2 25
-168 3 -169 3 2 -108 c0 -59 1 -313 1 -564 -1 -393 -3 -464 -17 -504 -17 -51
-85 -157 -113 -178 -9 -6 -27 -26 -39 -44 -12 -17 -33 -35 -45 -39 -12 -4 -34
-17 -48 -29 -15 -12 -42 -27 -60 -34 -19 -7 -47 -19 -64 -26 -72 -30 -107 -37
-220 -42 -97 -4 -127 -2 -159 11 -21 9 -44 16 -52 16 -18 0 -91 48 -130 86
-80 76 -99 196 -45 289 45 77 111 138 220 204 51 31 176 81 201 81 21 0 166
77 210 111 54 42 180 167 180 179 0 5 6 15 13 22 27 27 69 127 62 147 -3 12
-2 21 3 21 15 0 23 103 11 141 -6 19 -12 42 -13 51 -5 37 -52 112 -92 144 -22
19 -45 34 -49 34 -5 0 -16 6 -24 13 -34 29 -106 42 -226 42 -119 0 -120 0
-165 -32 -25 -17 -50 -40 -57 -51 -14 -23 -63 -19 -70 7 -2 9 -26 29 -51 46
-45 28 -53 30 -167 32 -90 2 -128 -1 -154 -12z m12 -52 c-7 -2 -21 -2 -30 0
-10 3 -4 5 12 5 17 0 24 -2 18 -5z m497 -48 c0 -8 -4 -15 -10 -15 -5 0 -10 7
-10 15 0 8 5 15 10 15 6 0 10 -7 10 -15z m707 -47 c-3 -8 -6 -5 -6 6 -1 11 2
17 5 13 3 -3 4 -12 1 -19z m73 7 c0 -8 -4 -15 -9 -15 -13 0 -22 16 -14 24 11
11 23 6 23 -9z m-1035 -5 c-3 -5 -10 -10 -16 -10 -5 0 -9 5 -9 10 0 6 7 10 16
10 8 0 12 -4 9 -10z m112 -52 c-3 -7 -5 -2 -5 12 0 14 2 19 5 13 2 -7 2 -19 0
-25z m193 -14 c0 -13 -21 -44 -30 -44 -14 0 -12 24 2 38 13 13 28 16 28 6z
m-480 -14 c0 -5 -4 -10 -10 -10 -5 0 -10 5 -10 10 0 6 5 10 10 10 6 0 10 -4
10 -10z m290 -50 c0 -5 -4 -10 -9 -10 -6 0 -13 5 -16 10 -3 6 1 10 9 10 9 0
16 -4 16 -10z m-400 -66 c0 -2 -9 -4 -21 -4 -11 0 -18 4 -14 10 5 8 35 3 35
-6z m347 0 c-3 -3 -12 -4 -19 -1 -8 3 -5 6 6 6 11 1 17 -2 13 -5z m73 -3 c0
-6 -4 -13 -10 -16 -5 -3 -10 1 -10 9 0 9 5 16 10 16 6 0 10 -4 10 -9z m-440
-45 c0 -8 -4 -17 -9 -21 -12 -7 -24 12 -16 25 9 15 25 12 25 -4z m850 -12 c0
-8 -4 -12 -10 -9 -5 3 -10 13 -10 21 0 8 5 12 10 9 6 -3 10 -13 10 -21z m-434
-52 c-12 -11 -18 7 -10 30 l8 23 4 -23 c2 -13 1 -26 -2 -30z m524 28 c0 -5 -4
-10 -10 -10 -5 0 -10 5 -10 10 0 6 5 10 10 10 6 0 10 -4 10 -10z m-60 -45 c0
-14 -4 -25 -10 -25 -5 0 -10 11 -10 25 0 14 5 25 10 25 6 0 10 -11 10 -25z
m-60 -21 c0 -2 -7 -4 -15 -4 -8 0 -15 4 -15 10 0 5 7 7 15 4 8 -4 15 -8 15
-10z m-30 -134 c0 -5 -5 -10 -11 -10 -5 0 -7 5 -4 10 3 6 8 10 11 10 2 0 4 -4
4 -10z m-91 -121 c-9 -5 -15 -4 -18 2 -2 6 3 15 10 20 9 5 15 4 18 -2 2 -6 -3
-15 -10 -20z m-359 -49 c0 -5 -7 -10 -15 -10 -8 0 -15 5 -15 10 0 6 7 10 15
10 8 0 15 -4 15 -10z m160 0 c0 -5 -13 -10 -30 -10 -16 0 -30 5 -30 10 0 6 14
10 30 10 17 0 30 -4 30 -10z m260 6 c0 -3 -4 -8 -10 -11 -5 -3 -10 -1 -10 4 0
6 5 11 10 11 6 0 10 -2 10 -4z m-340 -36 c0 -5 -4 -10 -9 -10 -6 0 -13 5 -16
10 -3 6 1 10 9 10 9 0 16 -4 16 -10z m-200 -160 c0 -5 -4 -10 -10 -10 -5 0
-10 5 -10 10 0 6 5 10 10 10 6 0 10 -4 10 -10z m-68 -45 c0 -5 -5 -11 -11 -13
-6 -2 -11 4 -11 13 0 9 5 15 11 13 6 -2 11 -8 11 -13z m70 -470 c0 -5 -5 -11
-11 -13 -6 -2 -11 4 -11 13 0 9 5 15 11 13 6 -2 11 -8 11 -13z m58 -29 c0 -3
-4 -8 -10 -11 -5 -3 -10 -1 -10 4 0 6 5 11 10 11 6 0 10 -2 10 -4z m780 -66
c0 -5 -6 -10 -14 -10 -8 0 -18 5 -21 10 -3 6 3 10 14 10 12 0 21 -4 21 -10z
m0 -74 c0 -11 -19 -15 -25 -6 -3 5 1 10 9 10 9 0 16 -2 16 -4z m207 -63 c-3
-10 -5 -4 -5 12 0 17 2 24 5 18 2 -7 2 -21 0 -30z"/>
<path d="M4275 5214 c-27 -8 -63 -20 -80 -26 -16 -6 -42 -13 -57 -15 -15 -3
-33 -11 -39 -19 -6 -8 -24 -14 -38 -14 -15 0 -36 -8 -47 -18 -10 -9 -42 -32
-70 -50 -28 -17 -63 -45 -77 -62 -15 -16 -31 -30 -37 -30 -11 0 -120 -133
-120 -147 0 -6 -7 -16 -15 -23 -8 -7 -15 -23 -15 -35 0 -13 -9 -42 -20 -66
-28 -63 -28 -206 1 -302 12 -40 28 -79 35 -88 8 -8 14 -20 14 -26 0 -8 53 -63
131 -136 11 -9 42 -27 69 -39 42 -18 50 -26 50 -48 0 -14 -4 -30 -10 -36 -15
-15 -42 -185 -35 -224 3 -19 15 -64 27 -99 37 -113 176 -233 341 -292 72 -26
95 -30 211 -31 152 -3 267 5 319 21 20 6 54 16 75 22 51 16 166 84 214 127 52
47 63 35 63 -66 l0 -77 75 -8 c92 -11 150 -9 165 3 7 6 23 5 43 -2 17 -7 34
-10 36 -7 5 4 9 1693 5 1724 0 6 0 25 1 43 l2 33 -163 -3 -164 -3 -1 -76 c0
-42 -4 -81 -8 -87 -11 -19 -44 -14 -56 8 -6 11 -18 20 -28 20 -9 0 -29 15 -44
34 -20 25 -43 39 -85 51 -32 9 -73 26 -91 37 -24 15 -43 19 -68 15 -19 -3 -32
-2 -30 2 20 31 -383 44 -479 15z m370 -255 c50 -6 103 -17 119 -25 16 -8 32
-14 36 -14 4 0 51 -25 104 -55 98 -55 192 -138 242 -214 23 -36 23 -37 23
-341 -1 -273 -3 -309 -19 -345 -21 -46 -127 -163 -183 -200 -195 -130 -475
-163 -627 -73 -32 19 -53 42 -74 81 -29 53 -30 56 -16 111 7 31 19 61 27 67 7
6 13 18 13 26 0 17 80 93 98 93 6 0 12 4 12 10 0 18 153 80 198 80 32 0 35 15
9 68 -13 26 -29 69 -37 95 -7 26 -17 50 -21 53 -5 3 -9 17 -9 31 0 23 -3 25
-32 20 -123 -18 -212 -50 -310 -109 l-47 -29 -40 26 c-22 14 -45 25 -50 25
-13 0 -53 56 -76 104 -15 33 -17 57 -12 144 3 58 9 107 14 111 6 3 22 26 38
50 74 118 216 204 347 210 31 1 69 6 85 11 15 5 44 7 63 4 19 -2 76 -9 125
-15z m250 -19 c4 -6 -5 -10 -19 -10 -14 0 -26 5 -26 10 0 6 9 10 19 10 11 0
23 -4 26 -10z m-941 -179 c4 -5 3 -17 0 -26 -5 -13 -8 -14 -15 -3 -5 7 -9 19
-9 26 0 14 16 16 24 3z m-4 -391 c0 -5 -2 -10 -4 -10 -3 0 -8 5 -11 10 -3 6
-1 10 4 10 6 0 11 -4 11 -10z m-170 -75 c0 -14 -4 -25 -10 -25 -5 0 -10 11
-10 25 0 14 5 25 10 25 6 0 10 -11 10 -25z m536 -62 c-10 -10 -19 5 -10 18 6
11 8 11 12 0 2 -7 1 -15 -2 -18z m-4 -85 c-7 -7 -12 -8 -12 -2 0 6 3 14 7 17
3 4 9 5 12 2 2 -3 -1 -11 -7 -17z m-142 -23 c-7 -8 -16 -15 -21 -15 -5 0 -9 7
-9 15 0 9 9 15 21 15 18 0 19 -2 9 -15z m108 -12 c2 -9 -7 -13 -27 -13 -31 0
-42 14 -18 23 19 8 40 3 45 -10z m-258 -2 c0 -6 -4 -13 -10 -16 -5 -3 -10 1
-10 9 0 9 5 16 10 16 6 0 10 -4 10 -9z m58 -64 c2 -12 -3 -17 -17 -17 -15 0
-21 6 -21 21 0 25 33 22 38 -4z m182 -37 c0 -11 -7 -20 -15 -20 -15 0 -21 21
-8 33 12 13 23 7 23 -13z m-287 -80 c3 -11 1 -18 -4 -14 -5 3 -9 12 -9 20 0
20 7 17 13 -6z m1127 -130 c0 -11 -7 -20 -15 -20 -27 0 -18 30 13 39 1 1 2 -8
2 -19z m100 0 c0 -21 -15 -27 -25 -10 -7 12 2 30 16 30 5 0 9 -9 9 -20z
m-1045 -39 c-3 -6 -11 -11 -17 -11 -6 0 -6 6 2 15 14 17 26 13 15 -4z m75 -31
c0 -5 -4 -10 -10 -10 -5 0 -10 5 -10 10 0 6 5 10 10 10 6 0 10 -4 10 -10z
m770 -15 c0 -8 -4 -15 -9 -15 -13 0 -22 16 -14 24 11 11 23 6 23 -9z m90 -84
c0 -19 -17 -38 -25 -29 -7 7 7 48 16 48 5 0 9 -9 9 -19z m-1030 -7 c0 -14 -3
-14 -15 -4 -8 7 -15 14 -15 16 0 2 7 4 15 4 8 0 15 -7 15 -16z m118 4 c-3 -7
-11 -13 -18 -13 -7 0 -15 6 -17 13 -3 7 4 12 17 12 13 0 20 -5 18 -12z m1040
-20 c-6 -18 -28 -21 -28 -4 0 9 7 16 16 16 9 0 14 -5 12 -12z m-195 -43 c0 -6
-7 -11 -16 -13 -12 -3 -15 1 -11 13 7 17 25 17 27 0z m-853 -25 c0 -5 -4 -10
-9 -10 -6 0 -13 5 -16 10 -3 6 1 10 9 10 9 0 16 -4 16 -10z m417 -26 c-3 -3
-12 -4 -19 -1 -8 3 -5 6 6 6 11 1 17 -2 13 -5z"/>
<path d="M2987 4309 c1 -490 4 -893 7 -896 2 -2 74 -6 160 -9 l156 -4 0 900 0
900 -162 0 -163 0 2 -891z m273 762 c0 -27 -17 -35 -23 -11 -5 19 0 30 15 30
4 0 8 -9 8 -19z m-161 -30 c-15 -5 -22 6 -14 19 6 9 10 9 16 -1 5 -8 4 -15 -2
-18z"/>
<path d="M5305 3303 c-40 -14 -65 -25 -138 -57 -21 -9 -44 -16 -53 -16 -19 0
-29 -27 -16 -43 10 -13 36 -113 47 -182 7 -42 43 -143 57 -159 4 -6 8 -22 8
-36 0 -14 6 -34 14 -45 7 -11 16 -36 19 -55 8 -54 31 -126 44 -141 10 -13 36
-93 64 -204 6 -22 14 -49 19 -60 24 -57 70 -208 70 -229 0 -42 18 -47 161 -44
l134 3 2 155 c2 157 -6 208 -44 265 -7 11 -13 29 -13 40 0 12 -4 25 -9 31 -5
5 -21 45 -36 89 -15 44 -35 100 -45 125 -37 92 -79 207 -98 270 -28 87 -77
228 -96 273 -17 41 -28 44 -91 20z m82 -175 c-3 -7 -5 -2 -5 12 0 14 2 19 5
13 2 -7 2 -19 0 -25z m120 -370 c-3 -8 -6 -5 -6 6 -1 11 2 17 5 13 3 -3 4 -12
1 -19z m-217 -70 c0 -5 -4 -8 -10 -8 -5 0 -10 10 -10 23 0 18 2 19 10 7 5 -8
10 -18 10 -22z m110 -73 c0 -14 -4 -25 -10 -25 -5 0 -10 11 -10 25 0 14 5 25
10 25 6 0 10 -11 10 -25z m71 -68 c-13 -13 -26 -3 -16 12 3 6 11 8 17 5 6 -4
6 -10 -1 -17z"/>
<path d="M4328 3169 c-9 -5 -62 -11 -119 -14 -56 -4 -111 -11 -121 -16 -10 -6
-60 -9 -111 -8 -120 3 -245 -10 -255 -26 -16 -26 -54 -35 -159 -35 -59 0 -139
-7 -178 -15 -38 -8 -104 -15 -145 -15 -73 0 -269 -37 -281 -52 -3 -4 -57 -9
-120 -10 -63 0 -118 -4 -124 -8 -5 -4 -41 -10 -79 -12 -42 -2 -71 -9 -74 -16
-2 -8 -29 -12 -76 -12 -40 0 -96 -7 -125 -16 -30 -8 -74 -17 -100 -18 -47 -2
-121 -31 -121 -47 0 -15 49 -22 108 -15 31 4 102 10 157 14 55 4 106 11 114
16 15 10 64 13 215 16 62 1 107 6 118 14 11 8 36 11 63 8 29 -2 45 0 45 7 0 6
12 11 26 11 14 0 23 -4 19 -10 -3 -5 -15 -10 -26 -10 -10 0 -19 -7 -19 -15 0
-10 -10 -15 -29 -15 -17 0 -33 -5 -36 -10 -9 -14 125 -6 153 9 26 14 84 11 79
-4 -2 -5 -19 -11 -38 -13 -44 -4 -59 -19 -28 -26 20 -5 53 -4 113 3 4 1 6 8 2
16 -3 9 3 19 17 26 12 7 27 19 33 28 10 12 17 13 37 4 18 -8 28 -8 36 0 7 7
18 7 38 -4 28 -14 28 -14 -24 -17 -44 -3 -53 -6 -53 -22 0 -18 6 -19 68 -14
93 7 112 12 112 29 0 8 5 15 10 15 6 0 10 -5 10 -10 0 -13 232 -4 275 11 17 5
95 13 175 17 l145 8 -97 8 c-54 4 -98 11 -98 15 0 8 172 32 225 31 17 0 49 -3
73 -6 32 -5 48 -2 61 10 17 15 19 15 24 1 4 -8 2 -15 -4 -15 -6 0 -7 -4 -4
-10 8 -13 91 -13 114 -1 10 6 54 12 98 15 44 3 93 10 109 16 44 16 94 44 94
52 0 4 16 10 35 14 19 3 35 10 35 14 0 11 -161 7 -179 -5 -27 -16 -61 -12 -61
7 0 10 5 18 10 18 6 0 10 5 10 10 0 7 -24 10 -62 8 -60 -3 -83 -19 -38 -26 33
-5 5 -31 -41 -38 -41 -7 -54 -24 -18 -24 11 0 17 -4 14 -10 -23 -38 -66 31
-44 72 16 30 39 47 64 48 11 0 31 8 45 17 15 10 39 16 67 14 46 -2 83 5 83 17
0 11 -223 12 -242 1z m-644 -238 c16 -17 16 -19 -2 -23 -31 -9 -165 4 -150 13
7 5 34 9 60 9 26 0 50 5 53 10 9 15 20 12 39 -9z m-1189 -51 c3 -5 -3 -10 -14
-10 -11 0 -23 5 -26 10 -3 6 3 10 14 10 11 0 23 -4 26 -10z m-228 -26 c-3 -3
-12 -4 -19 -1 -8 3 -5 6 6 6 11 1 17 -2 13 -5z"/>
<path d="M4655 3150 c-4 -6 5 -10 19 -10 14 0 26 5 26 10 0 6 -9 10 -19 10
-11 0 -23 -4 -26 -10z"/>
<path d="M4546 3121 c-7 -10 59 -22 80 -14 8 3 14 9 14 14 0 12 -87 12 -94 0z"/>
<path d="M4850 3111 c0 -5 9 -12 19 -16 11 -3 23 -15 27 -27 5 -18 7 -19 22
-4 14 14 14 17 -3 36 -18 20 -65 28 -65 11z"/>
<path d="M4740 3036 c0 -10 9 -16 21 -16 24 0 21 23 -4 28 -10 2 -17 -3 -17
-12z"/>
<path d="M892 3011 c-7 -4 -24 -6 -36 -4 -23 5 -24 3 -20 -64 2 -37 4 -94 4
-126 l0 -58 38 6 c20 3 51 10 69 16 17 5 65 12 105 14 40 2 79 4 86 4 6 1 12
5 12 9 0 12 -232 7 -256 -5 -25 -14 -47 -2 -42 23 2 15 13 20 47 21 24 2 70
15 102 29 59 27 60 27 116 11 37 -11 59 -13 63 -6 10 15 80 24 80 10 0 -7 15
-11 38 -10 20 2 42 1 47 0 27 -8 75 1 91 16 20 21 24 19 -151 48 -55 9 -108
21 -117 26 -10 5 -28 9 -42 9 -13 0 -39 6 -57 14 -42 17 -160 29 -177 17z"/>
<path d="M2473 2963 c9 -2 23 -2 30 0 6 3 -1 5 -18 5 -16 0 -22 -2 -12 -5z"/>
<path d="M4840 2949 c-13 -6 -34 -8 -45 -5 -12 3 -30 -1 -41 -8 -13 -9 -58
-13 -154 -14 -86 0 -159 -5 -200 -15 -36 -9 -109 -16 -165 -16 -55 0 -113 -4
-128 -10 -16 -6 -70 -11 -120 -12 -51 0 -128 -5 -172 -11 -44 -5 -116 -13
-159 -16 -82 -7 -111 -25 -58 -37 16 -3 59 -1 96 5 69 11 166 4 166 -11 0 -15
79 -10 111 6 17 9 56 16 93 16 46 1 69 6 82 17 14 14 34 16 107 13 56 -2 106
2 131 10 44 14 107 18 100 7 -14 -23 138 -20 238 4 36 9 50 9 61 -1 15 -12 55
-1 84 24 44 37 44 37 32 51 -13 16 -24 17 -59 3z m-20 -29 c0 -5 -9 -10 -21
-10 -11 0 -17 5 -14 10 3 6 13 10 21 10 8 0 14 -4 14 -10z"/>
<path d="M1540 2910 c0 -5 5 -10 11 -10 7 0 9 -10 5 -25 -6 -22 -3 -25 19 -25
22 0 25 3 19 25 -5 21 -3 25 15 25 12 0 21 5 21 10 0 6 -20 10 -45 10 -25 0
-45 -4 -45 -10z"/>
<path d="M1983 2913 c15 -2 37 -2 50 0 12 2 0 4 -28 4 -27 0 -38 -2 -22 -4z"/>
<path d="M1660 2900 c0 -28 12 -39 37 -29 13 5 57 9 98 9 45 0 84 6 101 15 27
14 20 15 -103 14 -73 0 -133 -4 -133 -9z"/>
<path d="M1337 2843 c-14 -13 -6 -23 17 -23 30 0 42 15 20 24 -20 8 -29 8 -37
-1z"/>
<path d="M2067 2843 c-22 -6 -12 -23 14 -23 10 0 19 7 19 15 0 15 -2 16 -33 8z"/>
<path d="M1202 2835 c8 -8 77 -9 85 -2 3 4 -15 7 -42 7 -27 0 -46 -2 -43 -5z"/>
<path d="M1785 2829 c-33 -4 -102 -11 -153 -14 -88 -5 -142 -22 -142 -46 0
-14 26 -10 40 6 10 12 35 15 120 13 59 0 113 3 120 7 8 5 42 9 76 9 58 1 85 9
72 21 -11 11 -74 13 -133 4z"/>
<path d="M2668 2833 c7 -3 16 -2 19 1 4 3 -2 6 -13 5 -11 0 -14 -3 -6 -6z"/>
<path d="M2725 2830 c-3 -5 3 -10 14 -10 12 0 21 5 21 10 0 6 -6 10 -14 10 -8
0 -18 -4 -21 -10z"/>
<path d="M2842 2813 c-18 -2 -30 -9 -27 -14 8 -11 145 -12 145 0 0 8 -52 22
-74 19 -6 0 -26 -3 -44 -5z"/>
<path d="M4310 2806 c0 -2 7 -7 16 -10 8 -3 12 -2 9 4 -6 10 -25 14 -25 6z"/>
<path d="M4410 2800 c-15 -10 22 -13 130 -12 84 0 100 2 100 11 0 12 -211 13
-230 1z"/>
<path d="M1200 2765 c0 -10 7 -15 18 -13 21 4 19 22 -2 26 -10 2 -16 -3 -16
-13z"/>
<path d="M1300 2770 c0 -5 12 -10 28 -10 21 0 24 2 12 10 -20 13 -40 13 -40 0z"/>
<path d="M1360 2770 c0 -5 9 -10 19 -10 11 0 23 5 26 10 4 6 -5 10 -19 10 -14
0 -26 -4 -26 -10z"/>
<path d="M2960 2764 c-19 -7 -48 -13 -64 -13 -16 -1 -26 -4 -22 -8 10 -11 86
-11 86 -1 0 5 24 8 53 8 80 -1 244 14 253 23 14 13 -268 6 -306 -9z"/>
<path d="M4092 2768 c-19 -19 -14 -28 14 -28 18 0 25 5 22 17 -4 21 -21 26
-36 11z"/>
<path d="M4218 2773 c6 -2 18 -2 25 0 6 3 1 5 -13 5 -14 0 -19 -2 -12 -5z"/>
<path d="M1070 2751 l-25 -7 25 -7 c35 -10 78 -9 84 2 12 19 -36 25 -84 12z"/>
<path d="M2425 2750 c-42 -4 -55 -8 -42 -14 9 -5 43 -4 75 1 71 11 48 20 -33
13z"/>
<path d="M2818 2738 c9 -9 15 -9 24 0 9 9 7 12 -12 12 -19 0 -21 -3 -12 -12z"/>
<path d="M4148 2743 c6 -2 18 -2 25 0 6 3 1 5 -13 5 -14 0 -19 -2 -12 -5z"/>
<path d="M835 2721 c-7 -23 2 -47 30 -77 26 -28 37 -30 70 -8 29 19 24 34 -11
34 -19 0 -25 5 -22 18 3 13 13 17 45 17 23 0 45 3 49 8 9 9 -5 10 -72 7 -29
-1 -55 3 -58 9 -11 17 -24 13 -31 -8z"/>
<path d="M3184 2716 c-5 -12 -21 -16 -66 -16 -37 0 -57 -4 -53 -10 8 -13 115
-13 115 -1 0 5 9 11 20 13 24 4 28 22 5 26 -8 2 -18 -4 -21 -12z"/>
<path d="M3385 2720 c-3 -5 3 -10 14 -10 12 0 21 5 21 10 0 6 -6 10 -14 10 -8
0 -18 -4 -21 -10z"/>
<path d="M3551 2726 c2 -2 33 -6 69 -9 40 -4 57 -2 45 3 -19 8 -123 14 -114 6z"/>
<path d="M4598 2713 c7 -3 16 -2 19 1 4 3 -2 6 -13 5 -11 0 -14 -3 -6 -6z"/>
<path d="M4653 2713 c9 -2 25 -2 35 0 9 3 1 5 -18 5 -19 0 -27 -2 -17 -5z"/>
<path d="M1965 2700 c-8 -12 20 -24 35 -15 5 3 10 10 10 16 0 12 -37 12 -45
-1z"/>
<path d="M2155 2700 c-4 -6 8 -10 30 -10 22 0 34 4 30 10 -3 6 -17 10 -30 10
-13 0 -27 -4 -30 -10z"/>
<path d="M4800 2700 c0 -5 7 -10 16 -10 8 0 12 5 9 10 -3 6 -10 10 -16 10 -5
0 -9 -4 -9 -10z"/>
<path d="M1765 2691 c-19 -8 -19 -8 2 -19 11 -6 34 -12 49 -14 34 -2 77 19 69
33 -7 11 -91 11 -120 0z"/>
<path d="M4240 2690 c0 -12 56 -14 64 -2 2 4 -11 9 -30 10 -19 2 -34 -2 -34
-8z"/>
<path d="M4387 2693 c-10 -3 -23 -16 -28 -30 l-10 -26 -104 6 c-57 3 -113 11
-124 16 -26 14 -719 14 -781 0 -63 -14 -80 -16 -117 -18 -49 -2 -40 -21 10
-21 23 -1 58 -6 77 -13 50 -17 376 -15 409 2 18 10 45 12 95 7 154 -15 366
-24 455 -18 80 4 94 8 99 24 3 12 14 18 33 18 16 0 32 1 37 3 4 1 8 -8 10 -20
4 -30 17 -29 55 3 30 25 36 26 114 21 46 -2 83 -1 83 4 0 5 -1 9 -2 9 -2 0
-39 3 -83 6 -44 4 -88 10 -97 15 -9 5 -23 6 -31 3 -8 -3 -18 -1 -22 5 -6 11
-44 13 -78 4z"/>
<path d="M1565 2660 c-18 -8 -17 -9 8 -9 15 -1 27 4 27 9 0 12 -8 12 -35 0z"/>
<path d="M2910 2630 c0 -5 9 -10 19 -10 11 0 23 5 26 10 4 6 -5 10 -19 10 -14
0 -26 -4 -26 -10z"/>
<path d="M3060 2630 c0 -5 15 -10 34 -10 19 0 38 5 41 10 4 6 -10 10 -34 10
-23 0 -41 -4 -41 -10z"/>
<path d="M4795 2630 c-3 -5 3 -10 14 -10 12 0 21 5 21 10 0 6 -6 10 -14 10 -8
0 -18 -4 -21 -10z"/>
<path d="M2255 2550 c11 -5 29 -9 40 -9 l20 0 -20 9 c-11 5 -29 9 -40 9 l-20
0 20 -9z"/>
<path d="M3015 2550 c-4 -6 8 -10 30 -10 22 0 34 4 30 10 -3 6 -17 10 -30 10
-13 0 -27 -4 -30 -10z"/>
<path d="M3230 2550 c-15 -9 -5 -15 37 -24 17 -4 34 -3 37 2 7 12 -59 32 -74
22z"/>
<path d="M3585 2550 c3 -5 18 -10 33 -10 21 0 24 2 12 10 -20 13 -53 13 -45 0z"/>
<path d="M4035 2550 c-99 -3 -159 -9 -157 -15 1 -5 13 -13 27 -17 40 -10 655
-17 655 -7 0 9 -73 19 -166 24 -39 2 -98 8 -130 14 -32 6 -60 10 -63 9 -3 -1
-78 -5 -166 -8z"/>
<path d="M2345 2536 c41 -20 120 -30 141 -18 17 10 6 12 -131 27 l-40 5 30
-14z"/>
<path d="M3325 2540 c-3 -6 6 -15 20 -20 35 -13 35 -13 35 10 0 15 -7 20 -24
20 -14 0 -28 -5 -31 -10z"/>
<path d="M3698 2532 c-4 -12 -18 -23 -37 -27 -43 -9 -39 -25 8 -25 34 0 39 3
44 28 6 31 -8 53 -15 24z"/>
<path d="M3750 2546 c0 -24 26 -66 40 -66 16 0 17 4 7 29 -6 16 -19 32 -29 34
-10 3 -18 4 -18 3z"/>
<path d="M2581 2521 c-10 -7 -8 -12 10 -25 43 -30 103 -12 63 19 -22 16 -53
19 -73 6z"/>
<path d="M4608 2513 c7 -3 16 -2 19 1 4 3 -2 6 -13 5 -11 0 -14 -3 -6 -6z"/>
<path d="M2736 2484 c-4 -11 0 -15 17 -13 12 1 34 -3 48 -9 14 -6 53 -16 85
-22 49 -9 65 -9 94 4 19 8 31 15 25 16 -5 0 -64 9 -130 20 -145 24 -132 23
-139 4z"/>
<path d="M3293 2462 c-8 -5 -9 -13 -3 -22 18 -29 25 -29 -143 -3 -41 6 -157
-16 -157 -29 0 -9 54 -13 108 -9 20 1 31 -2 28 -7 -8 -14 18 -22 72 -23 26 0
56 -4 67 -8 24 -10 45 4 45 30 0 26 13 24 25 -3 6 -14 21 -24 38 -26 15 -2 32
-12 37 -23 6 -10 17 -19 25 -19 8 0 15 -7 15 -15 0 -20 27 -19 38 1 13 23 45
13 53 -16 l7 -25 1 24 c1 23 3 24 57 17 31 -3 64 -10 73 -15 9 -5 49 -12 89
-15 67 -7 72 -6 72 12 0 17 -9 21 -52 25 -73 8 -174 26 -230 43 -26 8 -55 14
-66 14 -10 0 -27 9 -37 20 -12 13 -31 20 -57 20 -23 0 -38 5 -39 13 -1 6 -2
19 -3 27 -1 16 -44 25 -63 12z m-113 -56 c0 -11 -19 -15 -25 -6 -3 5 1 10 9
10 9 0 16 -2 16 -4z"/>
<path d="M3375 2460 c-4 -6 5 -10 19 -10 14 0 26 5 26 10 0 6 -9 10 -19 10
-11 0 -23 -4 -26 -10z"/>
<path d="M3460 2452 c0 -12 49 -27 123 -38 40 -5 48 -10 44 -25 -6 -24 5 -27
97 -23 44 1 89 -2 100 -8 15 -8 22 -6 35 11 11 15 23 20 34 15 21 -8 21 -13 0
-30 -16 -12 -12 -13 32 -14 64 0 95 9 95 26 0 17 24 18 53 2 12 -7 60 -14 107
-14 126 -2 288 -17 335 -31 18 -5 18 -5 2 11 -9 10 -15 21 -12 26 7 11 -19 17
-74 18 -25 1 -58 7 -74 13 -23 10 -30 10 -37 -1 -8 -12 -102 -10 -180 5 -14 2
-76 9 -139 14 -62 6 -118 14 -125 19 -17 14 -82 2 -105 -19 -21 -19 -91 -27
-91 -10 0 5 18 12 40 16 22 4 40 11 40 16 0 10 0 10 -150 13 -58 1 -115 5
-127 10 -15 5 -23 5 -23 -2z"/>
<path d="M4713 2433 c9 -2 25 -2 35 0 9 3 1 5 -18 5 -19 0 -27 -2 -17 -5z"/>
<path d="M4550 2340 c0 -5 9 -10 20 -10 11 0 20 5 20 10 0 6 -9 10 -20 10 -11
0 -20 -4 -20 -10z"/>
<path d="M4631 2336 c-12 -14 -5 -26 16 -26 15 0 18 26 4 34 -5 3 -14 0 -20
-8z"/>
<path d="M4705 2340 c3 -5 12 -7 20 -3 21 7 19 13 -6 13 -11 0 -18 -4 -14 -10z"/>
<path d="M4685 2300 c-3 -5 3 -10 15 -10 12 0 18 5 15 10 -3 6 -10 10 -15 10
-5 0 -12 -4 -15 -10z"/>
<path d="M3885 2281 c-30 -5 -36 -8 -22 -14 28 -11 51 -9 73 8 21 16 17 16
-51 6z"/>
<path d="M4037 2254 c4 -11 13 -14 30 -9 15 3 25 1 29 -9 4 -11 20 -14 62 -11
69 3 65 1 53 22 -13 24 -183 31 -174 7z"/>
<path d="M3975 2249 c-4 -6 -4 -13 -1 -16 8 -8 36 5 36 17 0 13 -27 13 -35 -1z"/>
<path d="M4325 2250 c-4 -6 -23 -9 -43 -8 -27 2 -37 -1 -40 -13 -2 -13 9 -18
49 -23 55 -7 65 -3 71 29 3 21 -26 34 -37 15z"/>
<path d="M4468 2233 c7 -3 16 -2 19 1 4 3 -2 6 -13 5 -11 0 -14 -3 -6 -6z"/>
<path d="M4610 2206 c0 -9 39 -13 51 -5 10 6 4 9 -18 9 -18 0 -33 -2 -33 -4z"/>
<path d="M4444 2181 c3 -5 15 -11 26 -14 17 -4 19 -3 9 9 -12 15 -44 20 -35 5z"/>
<path d="M4665 2120 c-4 -6 7 -10 27 -9 27 0 30 2 13 9 -27 12 -33 12 -40 0z"/>
<path d="M839 1928 c-3 -56 3 -823 5 -826 6 -5 4877 -3 4885 3 6 3 9 55 8 116
-1 107 -2 110 -22 105 -12 -3 -30 0 -39 7 -16 12 -18 35 -19 198 -2 168 0 187
17 204 15 15 22 16 37 7 10 -7 21 -12 24 -12 8 0 4 205 -4 218 -4 7 -241 10
-761 9 l-755 -2 -3 -30 c-3 -19 2 -33 14 -42 10 -7 14 -16 9 -20 -4 -5 -10 -2
-12 5 -6 14 -32 16 -53 2 -13 -9 -10 -14 14 -34 31 -26 29 -14 37 -204 4 -88
-2 -102 -47 -102 -23 0 -34 17 -34 53 -1 40 -26 60 -77 63 -53 4 -62 0 -80
-33 -31 -54 -1 -93 41 -54 20 19 25 20 35 7 7 -8 25 -18 41 -21 56 -12 78
-111 38 -168 -30 -44 -36 -47 -91 -47 -39 0 -52 5 -72 26 -14 15 -25 36 -25
48 0 12 -12 38 -26 59 -52 77 -39 218 24 246 l27 13 -28 20 c-35 26 -36 63 0
92 33 26 79 44 115 45 24 1 88 53 88 73 0 4 -745 7 -1655 8 l-1655 0 -1 -32z
m61 -12 c0 -3 -4 -8 -10 -11 -5 -3 -10 -1 -10 4 0 6 5 11 10 11 6 0 10 -2 10
-4z m4245 -36 c22 -11 45 -20 50 -20 6 0 21 -12 34 -25 20 -22 22 -30 15 -58
-8 -26 -15 -33 -40 -35 -20 -2 -36 4 -49 18 -29 32 -115 24 -115 -12 0 -4 18
-8 39 -8 45 0 119 -29 142 -56 9 -11 20 -30 24 -44 15 -51 24 -52 71 -5 24 25
44 52 44 60 0 29 54 45 149 43 51 -1 94 -5 97 -9 7 -12 7 -376 0 -388 -10 -16
-57 -13 -77 5 -17 15 -19 15 -35 -1 -14 -13 -30 -16 -72 -13 -61 5 -92 30 -92
73 0 13 -13 37 -29 53 -20 20 -28 36 -25 50 8 29 -12 36 -35 11 -11 -12 -25
-18 -31 -14 -18 11 -44 -3 -32 -18 21 -26 23 -85 5 -114 -23 -36 -32 -43 -63
-43 l-25 -1 25 -22 c14 -12 31 -34 37 -48 10 -24 8 -30 -16 -53 -29 -28 -72
-34 -89 -13 -6 6 -14 28 -19 47 -8 30 -6 37 16 56 l26 22 -28 11 c-44 17 -76
60 -77 104 0 20 -4 37 -10 37 -23 0 -42 63 -38 123 4 54 8 63 44 97 l40 37
-22 16 c-12 9 -25 29 -29 44 -7 30 8 45 90 90 49 27 50 27 100 3z m-2676 -61
c-8 -5 -16 -3 -21 4 -4 7 0 15 10 18 21 8 30 -10 11 -22z m2121 21 c8 -5 11
-12 8 -16 -10 -9 -38 3 -38 16 0 12 10 13 30 0z m-3255 -10 c-3 -5 -10 -10
-16 -10 -5 0 -9 5 -9 10 0 6 7 10 16 10 8 0 12 -4 9 -10z m543 -2 c-6 -18 -28
-21 -28 -4 0 9 7 16 16 16 9 0 14 -5 12 -12z m177 2 c3 -5 2 -10 -4 -10 -5 0
-13 5 -16 10 -3 6 -2 10 4 10 5 0 13 -4 16 -10z m222 4 c-3 -3 -12 -4 -19 -1
-8 3 -5 6 6 6 11 1 17 -2 13 -5z m1502 -1 c0 -5 -4 -17 -9 -28 -8 -18 -9 -17
-9 8 -1 15 4 27 9 27 6 0 10 -3 9 -7z m511 -13 c0 -11 -4 -20 -10 -20 -5 0
-10 9 -10 20 0 11 5 20 10 20 6 0 10 -9 10 -20z m-3267 -4 c6 -16 -2 -28 -14
-20 -12 7 -11 34 0 34 5 0 11 -6 14 -14z m2427 -1 c11 -13 8 -15 -14 -15 -16
0 -26 5 -26 15 0 8 6 15 14 15 7 0 19 -7 26 -15z m-1090 -5 c0 -5 -9 -10 -21
-10 -11 0 -17 5 -14 10 3 6 13 10 21 10 8 0 14 -4 14 -10z m430 0 c12 -8 11
-10 -7 -10 -13 0 -23 5 -23 10 0 13 11 13 30 0z m2010 1 c0 -12 -29 -23 -41
-15 -5 3 -7 10 -4 15 8 12 45 12 45 0z m94 -24 c-3 -9 -10 -17 -15 -17 -11 0
-12 34 -2 44 11 11 24 -9 17 -27z m-2357 17 c-3 -3 -12 -4 -19 -1 -8 3 -5 6 6
6 11 1 17 -2 13 -5z m3143 -14 c0 -5 -9 -10 -21 -10 -11 0 -17 5 -14 10 3 6
13 10 21 10 8 0 14 -4 14 -10z m-1420 -36 c0 -13 -4 -24 -10 -24 -5 0 -10 14
-10 31 0 17 4 28 10 24 6 -3 10 -17 10 -31z m-2356 1 c-4 -8 -10 -13 -15 -10
-4 3 -6 12 -3 20 4 8 10 13 15 10 4 -3 6 -12 3 -20z m2837 15 c10 -6 19 -17
19 -24 0 -11 10 -13 39 -9 30 4 46 0 71 -18 30 -23 31 -26 26 -79 -3 -30 -6
-62 -6 -70 -2 -26 16 -104 28 -127 9 -17 9 -22 -3 -27 -8 -3 -15 -12 -15 -19
0 -20 -61 -65 -91 -68 -88 -8 -138 22 -163 99 -22 65 -24 226 -4 250 8 9 21
32 28 50 7 18 20 37 29 42 20 12 19 12 42 0z m-2351 -14 c0 -3 -4 -8 -10 -11
-5 -3 -10 -1 -10 4 0 6 5 11 10 11 6 0 10 -2 10 -4z m1219 -16 c34 -17 41 -17
57 -5 28 21 49 18 61 -8 10 -21 8 -355 -2 -384 -2 -7 -31 -12 -77 -13 -40 0
-88 -2 -106 -2 -26 -1 -41 7 -68 35 -34 34 -35 39 -25 69 10 28 9 34 -8 48
-26 20 -44 92 -36 141 8 45 66 103 125 124 19 7 36 13 38 14 1 0 20 -8 41 -19z
m-2517 -11 c14 -7 23 -7 33 1 8 6 26 10 42 8 l28 -3 3 -197 2 -198 -25 -6
c-14 -3 -32 -4 -40 0 -8 3 -38 1 -66 -4 -106 -20 -169 27 -169 126 0 36 6 54
23 72 20 21 20 25 6 35 -8 7 -23 27 -32 46 -14 28 -15 41 -6 75 6 23 15 46 19
51 10 13 156 8 182 -6z m575 1 c9 -11 12 -71 13 -206 l0 -190 30 -47 c38 -60
39 -93 5 -101 -28 -7 -38 0 -70 49 -54 82 -59 103 -57 241 2 150 -3 163 -66
171 -36 5 -47 2 -67 -17 -41 -39 -24 -116 18 -82 6 5 29 12 50 16 l37 7 0 -37
c0 -40 -31 -84 -58 -84 -15 0 -13 -41 3 -82 9 -23 -37 -52 -70 -44 -32 8 -49
48 -41 97 4 27 1 43 -14 62 -16 20 -20 40 -20 104 0 73 2 81 28 106 44 42 88
55 182 54 63 -1 88 -6 97 -17z m348 9 c48 4 79 1 89 -9 6 -6 15 -5 27 6 23 20
57 10 64 -19 3 -12 4 -103 3 -202 l-3 -180 -35 1 c-19 1 -58 -2 -86 -7 -62
-10 -108 2 -148 37 -27 24 -28 28 -24 94 2 49 9 74 22 89 19 21 19 21 -1 21
-17 0 -21 9 -27 46 -9 68 -8 79 12 101 19 23 49 33 72 25 8 -3 24 -4 35 -3z
m323 -188 c0 -216 -1 -221 -43 -221 -18 0 -37 6 -43 13 -5 7 -10 88 -10 194
-1 175 0 183 20 197 19 14 24 13 48 -1 l28 -16 0 -166z m251 185 c30 -16 101
-90 101 -106 0 -6 7 -10 15 -10 9 0 15 9 15 22 0 24 59 81 103 99 20 9 42 9
75 2 26 -5 71 -8 100 -8 56 2 56 2 43 -24 -6 -10 -6 -23 0 -32 7 -11 14 -8 37
18 32 39 86 61 106 44 10 -8 13 -56 12 -208 l-1 -198 -33 -3 c-56 -6 -59 3
-55 145 l4 128 -35 16 c-36 16 -36 16 -42 -8 -4 -14 -4 -79 -2 -144 6 -131 1
-143 -49 -137 l-28 3 -1 126 c-2 162 -14 185 -96 187 -43 2 -68 -25 -68 -71 0
-34 24 -45 49 -23 27 24 69 21 82 -8 14 -31 -11 -83 -43 -88 -20 -3 -23 -9
-25 -56 -2 -76 -6 -83 -45 -76 -45 9 -58 29 -58 90 0 34 -5 56 -15 64 -8 7
-15 21 -15 31 0 23 -23 25 -40 4 -7 -9 -22 -14 -34 -13 -20 3 -21 -2 -23 -76
-2 -78 -2 -78 22 -74 18 4 26 0 31 -14 3 -11 15 -23 27 -27 11 -4 22 -16 23
-27 1 -10 7 -35 12 -56 9 -35 9 -36 -21 -42 -34 -7 -57 7 -57 35 0 10 -5 21
-10 24 -6 4 -19 24 -30 46 -17 32 -26 39 -50 39 -16 0 -32 -4 -35 -10 -3 -5
-13 -10 -21 -10 -8 0 -14 5 -14 10 0 6 9 10 20 10 13 0 18 5 14 15 -4 8 -18
15 -34 15 -19 0 -37 10 -54 31 -14 17 -26 34 -26 38 0 5 -11 20 -24 34 -34 37
-53 126 -36 168 22 53 85 103 138 110 26 3 51 7 55 7 4 1 20 -4 36 -12z
m-1269 -11 c15 -19 14 -363 -2 -382 -14 -17 -53 -17 -67 1 -15 18 -13 365 1
384 14 16 53 15 68 -3z m2550 -160 c3 -93 3 -183 0 -200 -5 -27 -9 -30 -45
-30 l-40 0 -3 194 c-3 212 -2 213 53 209 l30 -3 5 -170z m1470 165 c0 -5 -4
-10 -10 -10 -5 0 -10 5 -10 10 0 6 5 10 10 10 6 0 10 -4 10 -10z m-2612 -39
c3 -8 -1 -12 -9 -9 -7 2 -15 10 -17 17 -3 8 1 12 9 9 7 -2 15 -10 17 -17z
m1590 -23 c-7 -20 -48 -23 -48 -4 0 11 9 16 26 16 16 0 24 -5 22 -12z m27 -58
c3 -5 -1 -10 -9 -10 -9 0 -16 5 -16 10 0 6 4 10 9 10 6 0 13 -4 16 -10z m-5
-60 c0 -5 -4 -10 -9 -10 -6 0 -13 5 -16 10 -3 6 1 10 9 10 9 0 16 -4 16 -10z
m180 -32 l0 -32 -21 21 c-22 22 -19 43 7 43 9 0 14 -11 14 -32z m-127 -81 c9
-23 17 -56 17 -73 0 -46 -40 -114 -80 -135 -40 -22 -92 -27 -72 -7 7 7 12 25
12 40 0 17 8 33 20 40 21 13 27 38 10 38 -13 0 -40 54 -40 80 0 44 18 60 68
60 46 0 47 -1 65 -43z m67 -9 c-1 -26 -3 -30 -10 -16 -6 9 -7 23 -4 32 9 25
14 19 14 -16z m-2670 -53 c0 -8 -4 -15 -10 -15 -5 0 -7 7 -4 15 4 8 8 15 10
15 2 0 4 -7 4 -15z m2140 -41 c0 -8 -4 -12 -10 -9 -5 3 -10 13 -10 21 0 8 5
12 10 9 6 -3 10 -13 10 -21z m700 16 c0 -5 -6 -10 -14 -10 -8 0 -18 5 -21 10
-3 6 3 10 14 10 12 0 21 -4 21 -10z m-123 -42 c-3 -8 -6 -5 -6 6 -1 11 2 17 5
13 3 -3 4 -12 1 -19z m-3117 2 c0 -5 -7 -10 -15 -10 -8 0 -15 5 -15 10 0 6 7
10 15 10 8 0 15 -4 15 -10z m3523 3 c-7 -2 -19 -2 -25 0 -7 3 -2 5 12 5 14 0
19 -2 13 -5z m287 -3 c0 -5 -5 -10 -11 -10 -5 0 -7 5 -4 10 3 6 8 10 11 10 2
0 4 -4 4 -10z m-1220 -10 c13 -9 13 -11 0 -20 -22 -15 -30 -12 -30 10 0 22 8
25 30 10z m700 0 c0 -5 -2 -10 -4 -10 -3 0 -8 5 -11 10 -3 6 -1 10 4 10 6 0
11 -4 11 -10z m970 0 c0 -5 -2 -10 -4 -10 -3 0 -8 5 -11 10 -3 6 -1 10 4 10 6
0 11 -4 11 -10z m-1990 -10 c0 -5 -2 -10 -4 -10 -3 0 -8 5 -11 10 -3 6 -1 10
4 10 6 0 11 -4 11 -10z m-2330 -15 c0 -9 -9 -15 -22 -15 -22 1 -23 1 -4 15 25
19 26 19 26 0z m517 9 c-3 -3 -12 -4 -19 -1 -8 3 -5 6 6 6 11 1 17 -2 13 -5z
m1337 -15 c-8 -14 -24 -10 -24 6 0 9 6 12 15 9 8 -4 12 -10 9 -15z m-1672 -1
c-9 -9 -15 -9 -24 0 -9 9 -7 12 12 12 19 0 21 -3 12 -12z m648 2 c0 -5 -2 -10
-4 -10 -3 0 -8 5 -11 10 -3 6 -1 10 4 10 6 0 11 -4 11 -10z m820 6 c0 -9 -30
-14 -35 -6 -4 6 3 10 14 10 12 0 21 -2 21 -4z m1600 -6 c0 -5 -4 -10 -10 -10
-5 0 -10 5 -10 10 0 6 5 10 10 10 6 0 10 -4 10 -10z m234 1 c3 -5 0 -11 -8
-14 -19 -8 -57 3 -50 14 7 12 51 12 58 0z m446 3 c0 -3 -6 -12 -14 -20 -8 -7
-16 -19 -19 -26 -2 -7 -8 -10 -12 -6 -12 12 12 58 30 58 8 0 15 -3 15 -6z
m-1792 -43 c-16 -5 -29 22 -15 31 7 4 15 0 18 -10 4 -9 2 -19 -3 -21z m404 17
c-9 -9 -15 -9 -24 0 -9 9 -7 12 12 12 19 0 21 -3 12 -12z m196 -6 c5 -17 -27
-27 -41 -13 -9 9 -8 14 3 21 18 11 32 8 38 -8z m-1828 -2 c0 -5 -7 -10 -16
-10 -8 0 -12 5 -9 10 3 6 10 10 16 10 5 0 9 -4 9 -10z m275 0 c3 -5 -3 -10
-14 -10 -12 0 -21 5 -21 10 0 6 6 10 14 10 8 0 18 -4 21 -10z m103 -2 c-3 -7
-11 -13 -18 -13 -7 0 -15 6 -17 13 -3 7 4 12 17 12 13 0 20 -5 18 -12z m-701
-4 c-3 -3 -12 -4 -19 -1 -8 3 -5 6 6 6 11 1 17 -2 13 -5z m1173 -4 c0 -5 -6
-10 -14 -10 -8 0 -18 5 -21 10 -3 6 3 10 14 10 12 0 21 -4 21 -10z m2260 0
c-20 -13 -40 -13 -40 0 0 6 12 10 28 10 21 0 24 -2 12 -10z m-1545 -20 c3 -5
1 -10 -4 -10 -6 0 -11 5 -11 10 0 6 2 10 4 10 3 0 8 -4 11 -10z m975 -6 c0 -2
-9 -4 -21 -4 -11 0 -18 4 -14 10 5 8 35 3 35 -6z m710 6 c0 -5 -7 -10 -16 -10
-8 0 -12 5 -9 10 3 6 10 10 16 10 5 0 9 -4 9 -10z m-2930 -10 c0 -5 -4 -10
-10 -10 -5 0 -10 5 -10 10 0 6 5 10 10 10 6 0 10 -4 10 -10z m247 4 c-3 -3
-12 -4 -19 -1 -8 3 -5 6 6 6 11 1 17 -2 13 -5z m-349 -22 c2 -7 -3 -12 -12
-12 -9 0 -16 7 -16 16 0 17 22 14 28 -4z"/>
<path d="M5055 1643 c-30 -8 -45 -23 -45 -45 0 -14 5 -18 15 -14 8 3 22 9 30
12 11 4 17 -2 21 -24 6 -30 7 -30 30 -16 13 9 32 13 44 9 23 -7 27 13 9 48
-20 36 -46 44 -104 30z"/>
<path d="M5494 1575 c-10 -31 -9 -37 7 -46 17 -9 19 -5 19 36 0 54 -11 58 -26
10z"/>
<path d="M5373 1563 c-22 -8 -14 -23 12 -23 14 0 25 4 25 9 0 11 -21 19 -37
14z"/>
<path d="M5414 1456 c-7 -19 3 -36 22 -36 10 0 14 8 12 22 -4 26 -26 36 -34
14z"/>
<path d="M4715 1610 c-3 -5 -3 -14 0 -20 3 -5 1 -26 -4 -46 -17 -63 39 -145
89 -129 20 6 35 38 25 55 -4 6 -15 6 -32 -1 -45 -17 -67 20 -42 73 17 39 -16
101 -36 68z"/>
<path d="M3517 1644 c-4 -4 -7 -15 -7 -25 0 -9 -6 -19 -12 -22 -24 -8 6 -42
33 -38 47 7 53 6 57 -12 6 -32 -6 -62 -30 -72 -33 -14 -30 -47 6 -56 24 -7 34
-4 53 18 14 15 22 32 18 41 -3 8 -1 19 6 22 14 9 3 101 -14 124 -13 16 -98 32
-110 20z"/>
<path d="M1080 1545 c-7 -8 -18 -15 -25 -15 -8 0 -27 -12 -44 -26 -36 -30 -41
-68 -12 -84 31 -16 51 -12 81 18 23 24 28 37 28 75 -1 49 -8 57 -28 32z m-10
-74 c0 -5 -7 -12 -16 -15 -22 -9 -24 -8 -24 9 0 8 9 15 20 15 11 0 20 -4 20
-9z"/>
<path d="M2090 1555 c-13 -14 -29 -25 -35 -25 -16 0 -75 -60 -75 -76 0 -7 13
-22 28 -33 28 -20 28 -20 60 1 18 11 33 25 33 31 1 7 3 19 4 27 0 8 5 32 9 53
11 48 5 53 -24 22z m-30 -89 c0 -11 -19 -15 -25 -6 -3 5 1 10 9 10 9 0 16 -2
16 -4z"/>
<path d="M2500 1650 c0 -5 -8 -10 -18 -10 -9 0 -23 -9 -30 -20 -11 -18 -10
-20 10 -21 13 -1 29 0 37 1 8 1 22 -8 31 -20 14 -18 23 -21 48 -15 22 5 32 12
32 26 0 25 -36 60 -54 53 -8 -3 -17 -1 -21 5 -8 14 -35 14 -35 1z"/>
<path d="M2513 1509 c-16 -16 -17 -45 -3 -54 13 -8 23 17 18 45 -2 17 -5 19
-15 9z"/>
<path d="M4030 1767 l-45 -21 60 -6 c33 -4 68 -10 78 -14 33 -15 19 28 -16 45
-30 15 -35 15 -77 -4z"/>
<path d="M4035 1460 c-8 -13 3 -50 15 -50 12 0 23 37 15 50 -3 5 -10 10 -15
10 -5 0 -12 -5 -15 -10z"/>
</g>
</svg>
